<svg width="30" height="30" viewBox="0 0 30 30" fill="none" xmlns="http://www.w3.org/2000/svg">
<path d="M27.3257 6.7397C27.8594 8.12044 27.111 9.06575 25.6626 9.99692C24.4939 10.7482 23.0049 11.5622 21.4271 12.9537C19.8805 14.3179 18.371 15.9609 17.0296 17.5781C15.6936 19.1887 14.5581 20.7325 13.7557 21.8756C13.2372 22.6142 12.5137 23.7161 12.5137 23.7161C12.0035 24.5234 11.0862 25.012 10.1026 24.9997C9.11875 24.9875 8.2151 24.4765 7.72695 23.6564C6.4791 21.56 5.5162 20.7321 5.07364 20.4347C3.88947 19.639 2.5 19.5214 2.5 17.6669C2.5 16.1943 3.74361 15.0004 5.2777 15.0004C6.36077 15.0404 7.36748 15.4663 8.25945 16.0658C8.82961 16.4489 9.43361 16.9556 10.0619 17.6226C10.7992 16.617 11.6877 15.4566 12.6838 14.2559C14.1303 12.5121 15.8376 10.6414 17.6686 9.02645C19.4685 7.43894 21.5495 5.95294 23.7552 5.16726C25.1936 4.65496 26.7921 5.35897 27.3257 6.7397Z" stroke="#4372E9" stroke-width="2" stroke-linecap="round" stroke-linejoin="round"/>
</svg>
