<svg width="40" height="40" viewBox="0 0 40 40" fill="none" xmlns="http://www.w3.org/2000/svg">
<path d="M11 0.75H27C27.1212 0.75 27.2375 0.798088 27.3232 0.883789L38.1162 11.6768C38.2019 11.7625 38.25 11.8788 38.25 12V36C38.25 37.7949 36.7949 39.25 35 39.25H11C9.20507 39.25 7.75 37.7949 7.75 36V4C7.75 2.20507 9.20508 0.75 11 0.75Z" fill="white" stroke="#E3E8EF" stroke-width="1.5"/>
<path d="M27 0.5V8C27 10.2091 28.7909 12 31 12H38.5" stroke="#E3E8EF" stroke-width="1.5"/>
<rect y="17.5" width="31" height="17" rx="2" fill="#064E94"/>
<path d="M5.53344 29.54V28.01H6.89344C7.23344 28.01 7.5401 27.96 7.81344 27.86C8.08677 27.7533 8.3201 27.6067 8.51344 27.42C8.70677 27.2267 8.85344 26.9967 8.95344 26.73C9.05344 26.4567 9.10344 26.1567 9.10344 25.83C9.10344 25.49 9.05344 25.1867 8.95344 24.92C8.85344 24.6533 8.70677 24.4267 8.51344 24.24C8.3201 24.0533 8.08677 23.9133 7.81344 23.82C7.5401 23.72 7.23344 23.67 6.89344 23.67H5.53344V22.14H6.80344C7.46344 22.14 8.0401 22.2367 8.53344 22.43C9.02677 22.6233 9.4401 22.8867 9.77344 23.22C10.1068 23.5533 10.3534 23.9367 10.5134 24.37C10.6801 24.7967 10.7634 25.2467 10.7634 25.72V25.94C10.7634 26.38 10.6801 26.8167 10.5134 27.25C10.3534 27.6767 10.1068 28.0633 9.77344 28.41C9.4401 28.75 9.02677 29.0233 8.53344 29.23C8.0401 29.4367 7.46344 29.54 6.80344 29.54H5.53344ZM4.09344 29.54V22.14H5.73344V29.54H4.09344ZM15.4059 29.69C14.7459 29.69 14.1693 29.5767 13.6759 29.35C13.1893 29.1167 12.7859 28.8133 12.4659 28.44C12.1459 28.06 11.9059 27.65 11.7459 27.21C11.5926 26.77 11.5159 26.3467 11.5159 25.94V25.72C11.5159 25.2667 11.5959 24.82 11.7559 24.38C11.9226 23.9333 12.1693 23.53 12.4959 23.17C12.8226 22.81 13.2293 22.5233 13.7159 22.31C14.2026 22.09 14.7659 21.98 15.4059 21.98C16.0459 21.98 16.6093 22.09 17.0959 22.31C17.5826 22.5233 17.9893 22.81 18.3159 23.17C18.6426 23.53 18.8893 23.9333 19.0559 24.38C19.2226 24.82 19.3059 25.2667 19.3059 25.72V25.94C19.3059 26.3467 19.2259 26.77 19.0659 27.21C18.9059 27.65 18.6659 28.06 18.3459 28.44C18.0259 28.8133 17.6193 29.1167 17.1259 29.35C16.6393 29.5767 16.0659 29.69 15.4059 29.69ZM15.4059 28.16C15.7526 28.16 16.0626 28.1 16.3359 27.98C16.6159 27.86 16.8526 27.6933 17.0459 27.48C17.2459 27.2667 17.3959 27.02 17.4959 26.74C17.5959 26.46 17.6459 26.16 17.6459 25.84C17.6459 25.5 17.5926 25.19 17.4859 24.91C17.3859 24.6233 17.2359 24.3767 17.0359 24.17C16.8426 23.9567 16.6093 23.7933 16.3359 23.68C16.0626 23.5667 15.7526 23.51 15.4059 23.51C15.0593 23.51 14.7493 23.5667 14.4759 23.68C14.2026 23.7933 13.9659 23.9567 13.7659 24.17C13.5726 24.3767 13.4259 24.6233 13.3259 24.91C13.2259 25.19 13.1759 25.5 13.1759 25.84C13.1759 26.16 13.2259 26.46 13.3259 26.74C13.4259 27.02 13.5726 27.2667 13.7659 27.48C13.9659 27.6933 14.2026 27.86 14.4759 27.98C14.7493 28.1 15.0593 28.16 15.4059 28.16ZM23.8985 29.69C23.2385 29.69 22.6718 29.5767 22.1985 29.35C21.7252 29.1167 21.3385 28.8133 21.0385 28.44C20.7385 28.06 20.5152 27.6533 20.3685 27.22C20.2285 26.78 20.1585 26.3533 20.1585 25.94V25.72C20.1585 25.2667 20.2318 24.82 20.3785 24.38C20.5252 23.9333 20.7485 23.53 21.0485 23.17C21.3552 22.81 21.7385 22.5233 22.1985 22.31C22.6652 22.09 23.2152 21.98 23.8485 21.98C24.5085 21.98 25.0918 22.1033 25.5985 22.35C26.1052 22.5967 26.5085 22.94 26.8085 23.38C27.1152 23.8133 27.2952 24.3233 27.3485 24.91H25.6985C25.6518 24.6167 25.5452 24.3667 25.3785 24.16C25.2118 23.9533 24.9952 23.7933 24.7285 23.68C24.4685 23.5667 24.1752 23.51 23.8485 23.51C23.5218 23.51 23.2318 23.5667 22.9785 23.68C22.7252 23.7933 22.5118 23.9533 22.3385 24.16C22.1718 24.3667 22.0418 24.6133 21.9485 24.9C21.8618 25.18 21.8185 25.4933 21.8185 25.84C21.8185 26.18 21.8618 26.4933 21.9485 26.78C22.0418 27.06 22.1752 27.3067 22.3485 27.52C22.5285 27.7267 22.7485 27.8867 23.0085 28C23.2685 28.1067 23.5652 28.16 23.8985 28.16C24.4052 28.16 24.8318 28.0367 25.1785 27.79C25.5318 27.5433 25.7452 27.2033 25.8185 26.77H27.4585C27.3985 27.3033 27.2185 27.7933 26.9185 28.24C26.6252 28.68 26.2218 29.0333 25.7085 29.3C25.2018 29.56 24.5985 29.69 23.8985 29.69Z" fill="white"/>
</svg>
