<svg width="40" height="40" viewBox="0 0 40 40" fill="none" xmlns="http://www.w3.org/2000/svg">
<path d="M11 0.75H27C27.1212 0.75 27.2375 0.798088 27.3232 0.883789L38.1162 11.6768C38.2019 11.7625 38.25 11.8788 38.25 12V36C38.25 37.7949 36.7949 39.25 35 39.25H11C9.20507 39.25 7.75 37.7949 7.75 36V4C7.75 2.20507 9.20508 0.75 11 0.75Z" fill="white" stroke="#E3E8EF" stroke-width="1.5"/>
<path d="M27 0.5V8C27 10.2091 28.7909 12 31 12H38.5" stroke="#E3E8EF" stroke-width="1.5"/>
<rect y="17.5" width="38" height="17" rx="2" fill="#064E94"/>
<path d="M5.50316 29.54V28.01H6.86316C7.20316 28.01 7.50983 27.96 7.78316 27.86C8.0565 27.7533 8.28983 27.6067 8.48316 27.42C8.6765 27.2267 8.82316 26.9967 8.92316 26.73C9.02316 26.4567 9.07316 26.1567 9.07316 25.83C9.07316 25.49 9.02316 25.1867 8.92316 24.92C8.82316 24.6533 8.6765 24.4267 8.48316 24.24C8.28983 24.0533 8.0565 23.9133 7.78316 23.82C7.50983 23.72 7.20316 23.67 6.86316 23.67H5.50316V22.14H6.77316C7.43316 22.14 8.00983 22.2367 8.50316 22.43C8.9965 22.6233 9.40983 22.8867 9.74316 23.22C10.0765 23.5533 10.3232 23.9367 10.4832 24.37C10.6498 24.7967 10.7332 25.2467 10.7332 25.72V25.94C10.7332 26.38 10.6498 26.8167 10.4832 27.25C10.3232 27.6767 10.0765 28.0633 9.74316 28.41C9.40983 28.75 8.9965 29.0233 8.50316 29.23C8.00983 29.4367 7.43316 29.54 6.77316 29.54H5.50316ZM4.06316 29.54V22.14H5.70316V29.54H4.06316ZM15.3757 29.69C14.7157 29.69 14.139 29.5767 13.6457 29.35C13.159 29.1167 12.7557 28.8133 12.4357 28.44C12.1157 28.06 11.8757 27.65 11.7157 27.21C11.5623 26.77 11.4857 26.3467 11.4857 25.94V25.72C11.4857 25.2667 11.5657 24.82 11.7257 24.38C11.8923 23.9333 12.139 23.53 12.4657 23.17C12.7923 22.81 13.199 22.5233 13.6857 22.31C14.1723 22.09 14.7357 21.98 15.3757 21.98C16.0157 21.98 16.579 22.09 17.0657 22.31C17.5523 22.5233 17.959 22.81 18.2857 23.17C18.6123 23.53 18.859 23.9333 19.0257 24.38C19.1923 24.82 19.2757 25.2667 19.2757 25.72V25.94C19.2757 26.3467 19.1957 26.77 19.0357 27.21C18.8757 27.65 18.6357 28.06 18.3157 28.44C17.9957 28.8133 17.589 29.1167 17.0957 29.35C16.609 29.5767 16.0357 29.69 15.3757 29.69ZM15.3757 28.16C15.7223 28.16 16.0323 28.1 16.3057 27.98C16.5857 27.86 16.8223 27.6933 17.0157 27.48C17.2157 27.2667 17.3657 27.02 17.4657 26.74C17.5657 26.46 17.6157 26.16 17.6157 25.84C17.6157 25.5 17.5623 25.19 17.4557 24.91C17.3557 24.6233 17.2057 24.3767 17.0057 24.17C16.8123 23.9567 16.579 23.7933 16.3057 23.68C16.0323 23.5667 15.7223 23.51 15.3757 23.51C15.029 23.51 14.719 23.5667 14.4457 23.68C14.1723 23.7933 13.9357 23.9567 13.7357 24.17C13.5423 24.3767 13.3957 24.6233 13.2957 24.91C13.1957 25.19 13.1457 25.5 13.1457 25.84C13.1457 26.16 13.1957 26.46 13.2957 26.74C13.3957 27.02 13.5423 27.2667 13.7357 27.48C13.9357 27.6933 14.1723 27.86 14.4457 27.98C14.719 28.1 15.029 28.16 15.3757 28.16ZM23.8682 29.69C23.2082 29.69 22.6416 29.5767 22.1682 29.35C21.6949 29.1167 21.3082 28.8133 21.0082 28.44C20.7082 28.06 20.4849 27.6533 20.3382 27.22C20.1982 26.78 20.1282 26.3533 20.1282 25.94V25.72C20.1282 25.2667 20.2016 24.82 20.3482 24.38C20.4949 23.9333 20.7182 23.53 21.0182 23.17C21.3249 22.81 21.7082 22.5233 22.1682 22.31C22.6349 22.09 23.1849 21.98 23.8182 21.98C24.4782 21.98 25.0616 22.1033 25.5682 22.35C26.0749 22.5967 26.4782 22.94 26.7782 23.38C27.0849 23.8133 27.2649 24.3233 27.3182 24.91H25.6682C25.6216 24.6167 25.5149 24.3667 25.3482 24.16C25.1816 23.9533 24.9649 23.7933 24.6982 23.68C24.4382 23.5667 24.1449 23.51 23.8182 23.51C23.4916 23.51 23.2016 23.5667 22.9482 23.68C22.6949 23.7933 22.4816 23.9533 22.3082 24.16C22.1416 24.3667 22.0116 24.6133 21.9182 24.9C21.8316 25.18 21.7882 25.4933 21.7882 25.84C21.7882 26.18 21.8316 26.4933 21.9182 26.78C22.0116 27.06 22.1449 27.3067 22.3182 27.52C22.4982 27.7267 22.7182 27.8867 22.9782 28C23.2382 28.1067 23.5349 28.16 23.8682 28.16C24.3749 28.16 24.8016 28.0367 25.1482 27.79C25.5016 27.5433 25.7149 27.2033 25.7882 26.77H27.4282C27.3682 27.3033 27.1882 27.7933 26.8882 28.24C26.5949 28.68 26.1916 29.0333 25.6782 29.3C25.1716 29.56 24.5682 29.69 23.8682 29.69ZM27.63 29.5L30.12 25.61L30.14 25.78L27.84 22.2H29.64L31.06 24.48H31.29L32.69 22.2H34.44L32.13 25.8L32.1 25.64L34.67 29.5H32.86L31.2 26.92H30.96L29.38 29.5H27.63Z" fill="white"/>
</svg>
