<svg width="40" height="40" viewBox="0 0 40 40" fill="none" xmlns="http://www.w3.org/2000/svg">
<path d="M11 0.75H27C27.1212 0.75 27.2375 0.798088 27.3232 0.883789L38.1162 11.6768C38.2019 11.7625 38.25 11.8788 38.25 12V36C38.25 37.7949 36.7949 39.25 35 39.25H11C9.20507 39.25 7.75 37.7949 7.75 36V4C7.75 2.20507 9.20508 0.75 11 0.75Z" fill="white" stroke="#E3E8EF" stroke-width="1.5"/>
<path d="M27 0.5V8C27 10.2091 28.7909 12 31 12H38.5" stroke="#E3E8EF" stroke-width="1.5"/>
<rect x="0.5" y="17.5" width="27" height="17" rx="2" fill="#B51726"/>
<path d="M6.22094 27.41V25.99H7.53094C7.78427 25.99 8.00094 25.94 8.18094 25.84C8.3676 25.74 8.51094 25.6 8.61094 25.42C8.71094 25.2333 8.76094 25.02 8.76094 24.78C8.76094 24.5267 8.71094 24.31 8.61094 24.13C8.51094 23.9433 8.3676 23.8033 8.18094 23.71C8.00094 23.61 7.78427 23.56 7.53094 23.56H6.22094V22.14H7.45094C8.07094 22.14 8.60094 22.2433 9.04094 22.45C9.4876 22.6567 9.8276 22.95 10.0609 23.33C10.3009 23.71 10.4209 24.1667 10.4209 24.7V24.86C10.4209 25.38 10.3009 25.8333 10.0609 26.22C9.8276 26.6 9.4876 26.8933 9.04094 27.1C8.60094 27.3067 8.07094 27.41 7.45094 27.41H6.22094ZM4.78094 29.5V22.14H6.42094V29.5H4.78094ZM12.8909 29.54V28.01H14.2509C14.5909 28.01 14.8975 27.96 15.1709 27.86C15.4442 27.7533 15.6775 27.6067 15.8709 27.42C16.0642 27.2267 16.2109 26.9967 16.3109 26.73C16.4109 26.4567 16.4609 26.1567 16.4609 25.83C16.4609 25.49 16.4109 25.1867 16.3109 24.92C16.2109 24.6533 16.0642 24.4267 15.8709 24.24C15.6775 24.0533 15.4442 23.9133 15.1709 23.82C14.8975 23.72 14.5909 23.67 14.2509 23.67H12.8909V22.14H14.1609C14.8209 22.14 15.3975 22.2367 15.8909 22.43C16.3842 22.6233 16.7975 22.8867 17.1309 23.22C17.4642 23.5533 17.7109 23.9367 17.8709 24.37C18.0375 24.7967 18.1209 25.2467 18.1209 25.72V25.94C18.1209 26.38 18.0375 26.8167 17.8709 27.25C17.7109 27.6767 17.4642 28.0633 17.1309 28.41C16.7975 28.75 16.3842 29.0233 15.8909 29.23C15.3975 29.4367 14.8209 29.54 14.1609 29.54H12.8909ZM11.4509 29.54V22.14H13.0909V29.54H11.4509ZM19.2634 29.5V22.2H20.9034V29.5H19.2634ZM20.7034 26.56V25.2H23.5234V26.56H20.7034ZM20.7034 23.56V22.2H23.6434V23.56H20.7034Z" fill="white"/>
</svg>
