<svg width="30" height="30" viewBox="0 0 30 30" fill="none" xmlns="http://www.w3.org/2000/svg">
<path d="M11.418 3.125C8.08511 3.20094 6.13844 3.5182 4.80836 4.84366C3.64426 6.00371 3.25514 7.63445 3.12506 10.25M18.5821 3.125C21.915 3.20094 23.8616 3.5182 25.1917 4.84366C26.3559 6.00371 26.745 7.63445 26.875 10.25M18.5821 26.875C21.915 26.799 23.8616 26.4818 25.1917 25.1564C26.3559 23.9963 26.745 22.3655 26.875 19.75M11.418 26.875C8.08511 26.799 6.13844 26.4818 4.80836 25.1564C3.64426 23.9963 3.25514 22.3655 3.12506 19.75" stroke="#4372E9" stroke-width="2" stroke-linecap="round" stroke-linejoin="round"/>
<path d="M14.375 8.75H15.625M14.375 15H15.625M14.375 21.25H15.625M6.25 15H7.5M22.5 15H23.75" stroke="#4372E9" stroke-width="2" stroke-linecap="round"/>
</svg>
