<svg width="40" height="40" viewBox="0 0 40 40" fill="none" xmlns="http://www.w3.org/2000/svg">
<path d="M11 0.75H27C27.1212 0.75 27.2375 0.798088 27.3232 0.883789L38.1162 11.6768C38.2019 11.7625 38.25 11.8788 38.25 12V36C38.25 37.7949 36.7949 39.25 35 39.25H11C9.20507 39.25 7.75 37.7949 7.75 36V4C7.75 2.20507 9.20508 0.75 11 0.75Z" fill="white" stroke="#E3E8EF" stroke-width="1.5"/>
<path d="M27 0.5V8C27 10.2091 28.7909 12 31 12H38.5" stroke="#E3E8EF" stroke-width="1.5"/>
<rect x="1" y="17.5" width="26" height="17" rx="2" fill="#93370D"/>
<path d="M6.50902 27.41V25.99H7.81902C8.07236 25.99 8.28902 25.94 8.46902 25.84C8.65569 25.74 8.79902 25.6 8.89902 25.42C8.99902 25.2333 9.04902 25.02 9.04902 24.78C9.04902 24.5267 8.99902 24.31 8.89902 24.13C8.79902 23.9433 8.65569 23.8033 8.46902 23.71C8.28902 23.61 8.07236 23.56 7.81902 23.56H6.50902V22.14H7.73902C8.35902 22.14 8.88902 22.2433 9.32902 22.45C9.77569 22.6567 10.1157 22.95 10.349 23.33C10.589 23.71 10.709 24.1667 10.709 24.7V24.86C10.709 25.38 10.589 25.8333 10.349 26.22C10.1157 26.6 9.77569 26.8933 9.32902 27.1C8.88902 27.3067 8.35902 27.41 7.73902 27.41H6.50902ZM5.06902 29.5V22.14H6.70902V29.5H5.06902ZM13.1789 27.41V25.99H14.4889C14.7423 25.99 14.9589 25.94 15.1389 25.84C15.3256 25.74 15.4689 25.6 15.5689 25.42C15.6689 25.2333 15.7189 25.02 15.7189 24.78C15.7189 24.5267 15.6689 24.31 15.5689 24.13C15.4689 23.9433 15.3256 23.8033 15.1389 23.71C14.9589 23.61 14.7423 23.56 14.4889 23.56H13.1789V22.14H14.4089C15.0289 22.14 15.5589 22.2433 15.9989 22.45C16.4456 22.6567 16.7856 22.95 17.0189 23.33C17.2589 23.71 17.3789 24.1667 17.3789 24.7V24.86C17.3789 25.38 17.2589 25.8333 17.0189 26.22C16.7856 26.6 16.4456 26.8933 15.9989 27.1C15.5589 27.3067 15.0289 27.41 14.4089 27.41H13.1789ZM11.7389 29.5V22.14H13.3789V29.5H11.7389ZM19.8393 29.5V23.43H21.4793V29.5H19.8393ZM17.7893 23.63V22.2H23.5393V23.63H17.7893Z" fill="white"/>
</svg>
