<svg width="40" height="40" viewBox="0 0 40 40" fill="none" xmlns="http://www.w3.org/2000/svg">
<path d="M11 0.75H27C27.1212 0.75 27.2375 0.798088 27.3232 0.883789L38.1162 11.6768C38.2019 11.7625 38.25 11.8788 38.25 12V36C38.25 37.7949 36.7949 39.25 35 39.25H11C9.20507 39.25 7.75 37.7949 7.75 36V4C7.75 2.20507 9.20508 0.75 11 0.75Z" fill="white" stroke="#E3E8EF" stroke-width="1.5"/>
<path d="M27 0.5V8C27 10.2091 28.7909 12 31 12H38.5" stroke="#E3E8EF" stroke-width="1.5"/>
<rect x="1" y="17.5" width="33" height="17" rx="2" fill="#93370D"/>
<path d="M6.38598 27.41V25.99H7.69598C7.94931 25.99 8.16598 25.94 8.34598 25.84C8.53264 25.74 8.67598 25.6 8.77598 25.42C8.87598 25.2333 8.92598 25.02 8.92598 24.78C8.92598 24.5267 8.87598 24.31 8.77598 24.13C8.67598 23.9433 8.53264 23.8033 8.34598 23.71C8.16598 23.61 7.94931 23.56 7.69598 23.56H6.38598V22.14H7.61598C8.23598 22.14 8.76598 22.2433 9.20598 22.45C9.65264 22.6567 9.99264 22.95 10.226 23.33C10.466 23.71 10.586 24.1667 10.586 24.7V24.86C10.586 25.38 10.466 25.8333 10.226 26.22C9.99264 26.6 9.65264 26.8933 9.20598 27.1C8.76598 27.3067 8.23598 27.41 7.61598 27.41H6.38598ZM4.94598 29.5V22.14H6.58598V29.5H4.94598ZM13.0559 27.41V25.99H14.3659C14.6192 25.99 14.8359 25.94 15.0159 25.84C15.2026 25.74 15.3459 25.6 15.4459 25.42C15.5459 25.2333 15.5959 25.02 15.5959 24.78C15.5959 24.5267 15.5459 24.31 15.4459 24.13C15.3459 23.9433 15.2026 23.8033 15.0159 23.71C14.8359 23.61 14.6192 23.56 14.3659 23.56H13.0559V22.14H14.2859C14.9059 22.14 15.4359 22.2433 15.8759 22.45C16.3226 22.6567 16.6626 22.95 16.8959 23.33C17.1359 23.71 17.2559 24.1667 17.2559 24.7V24.86C17.2559 25.38 17.1359 25.8333 16.8959 26.22C16.6626 26.6 16.3226 26.8933 15.8759 27.1C15.4359 27.3067 14.9059 27.41 14.2859 27.41H13.0559ZM11.6159 29.5V22.14H13.2559V29.5H11.6159ZM19.7163 29.5V23.43H21.3563V29.5H19.7163ZM17.6663 23.63V22.2H23.4163V23.63H17.6663ZM23.7472 29.5L26.2372 25.61L26.2572 25.78L23.9572 22.2H25.7572L27.1772 24.48H27.4072L28.8072 22.2H30.5572L28.2472 25.8L28.2172 25.64L30.7872 29.5H28.9772L27.3172 26.92H27.0772L25.4972 29.5H23.7472Z" fill="white"/>
</svg>
