<svg width="40" height="40" viewBox="0 0 40 40" fill="none" xmlns="http://www.w3.org/2000/svg">
<path d="M11 0.75H27C27.1212 0.75 27.2375 0.798088 27.3232 0.883789L38.1162 11.6768C38.2019 11.7625 38.25 11.8788 38.25 12V36C38.25 37.7949 36.7949 39.25 35 39.25H11C9.20507 39.25 7.75 37.7949 7.75 36V4C7.75 2.20507 9.20508 0.75 11 0.75Z" fill="white" stroke="#E3E8EF" stroke-width="1.5"/>
<path d="M27 0.5V8C27 10.2091 28.7909 12 31 12H38.5" stroke="#E3E8EF" stroke-width="1.5"/>
<rect x="1" y="17.5" width="26" height="17" rx="2" fill="#079455"/>
<path d="M4.39762 29.5L6.88762 25.61L6.90762 25.78L4.60762 22.2H6.40762L7.82762 24.48H8.05762L9.45762 22.2H11.2076L8.89762 25.8L8.86762 25.64L11.4376 29.5H9.62762L7.96762 26.92H7.72762L6.14762 29.5H4.39762ZM12.3444 29.5V22.2H13.9844V29.5H12.3444ZM13.7844 29.5V28.06H16.8444V29.5H13.7844ZM20.3825 29.69C19.7225 29.69 19.1658 29.5867 18.7125 29.38C18.2591 29.1667 17.9158 28.88 17.6825 28.52C17.4491 28.1533 17.3325 27.7333 17.3325 27.26H18.9225C18.9225 27.4467 18.9725 27.62 19.0725 27.78C19.1791 27.94 19.3391 28.07 19.5525 28.17C19.7658 28.2633 20.0425 28.31 20.3825 28.31C20.6891 28.31 20.9458 28.27 21.1525 28.19C21.3591 28.11 21.5158 28 21.6225 27.86C21.7291 27.7133 21.7825 27.5467 21.7825 27.36C21.7825 27.1267 21.6825 26.9433 21.4825 26.81C21.2825 26.67 20.9591 26.58 20.5125 26.54L19.9625 26.49C19.2358 26.43 18.6558 26.2033 18.2225 25.81C17.7891 25.4167 17.5725 24.8967 17.5725 24.25C17.5725 23.7833 17.6825 23.38 17.9025 23.04C18.1291 22.7 18.4425 22.44 18.8425 22.26C19.2425 22.0733 19.7158 21.98 20.2625 21.98C20.8358 21.98 21.3258 22.08 21.7325 22.28C22.1458 22.4733 22.4625 22.75 22.6825 23.11C22.9025 23.4633 23.0125 23.88 23.0125 24.36H21.4125C21.4125 24.18 21.3691 24.0167 21.2825 23.87C21.1958 23.7167 21.0658 23.5933 20.8925 23.5C20.7258 23.4067 20.5158 23.36 20.2625 23.36C20.0225 23.36 19.8191 23.4 19.6525 23.48C19.4925 23.56 19.3725 23.67 19.2925 23.81C19.2125 23.9433 19.1725 24.09 19.1725 24.25C19.1725 24.4567 19.2458 24.6367 19.3925 24.79C19.5391 24.9433 19.7791 25.0333 20.1125 25.06L20.6725 25.11C21.2058 25.1567 21.6758 25.2733 22.0825 25.46C22.4891 25.64 22.8058 25.89 23.0325 26.21C23.2658 26.5233 23.3825 26.9067 23.3825 27.36C23.3825 27.8267 23.2591 28.2367 23.0125 28.59C22.7725 28.9367 22.4291 29.2067 21.9825 29.4C21.5358 29.5933 21.0025 29.69 20.3825 29.69Z" fill="white"/>
</svg>
